<?xml version="1.0" encoding="UTF-8" standalone="no"?>
<svg
   inkscape:version="1.2.1 (9c6d41e410, 2022-07-14)"
   sodipodi:docname="PelicanModule2.svg"
   id="svg38"
   version="1.1"
   viewBox="-2 -2 285.00 154.00"
   height="154.00mm"
   width="285.00mm"
   xmlns:inkscape="http://www.inkscape.org/namespaces/inkscape"
   xmlns:sodipodi="http://sodipodi.sourceforge.net/DTD/sodipodi-0.dtd"
   xmlns="http://www.w3.org/2000/svg"
   xmlns:svg="http://www.w3.org/2000/svg"
   xmlns:rdf="http://www.w3.org/1999/02/22-rdf-syntax-ns#"
   xmlns:cc="http://creativecommons.org/ns#"
   xmlns:dc="http://purl.org/dc/elements/1.1/">
  <metadata
     id="metadata44">
    <rdf:RDF>
      <cc:Work
         rdf:about="">
        <dc:format>image/svg+xml</dc:format>
        <dc:type
           rdf:resource="http://purl.org/dc/dcmitype/StillImage" />
      </cc:Work>
    </rdf:RDF>
  </metadata>
  <defs
     id="defs42" />
  <sodipodi:namedview
     inkscape:current-layer="svg38"
     inkscape:window-maximized="1"
     inkscape:window-y="-8"
     inkscape:window-x="-8"
     inkscape:cy="176.26342"
     inkscape:cx="754.94836"
     inkscape:zoom="1.0722588"
     inkscape:snap-center="true"
     inkscape:snap-object-midpoints="true"
     inkscape:snap-midpoints="true"
     inkscape:snap-smooth-nodes="true"
     inkscape:snap-intersection-paths="true"
     inkscape:object-paths="true"
     inkscape:snap-bbox-midpoints="true"
     inkscape:snap-bbox-edge-midpoints="true"
     inkscape:bbox-nodes="true"
     inkscape:bbox-paths="true"
     inkscape:snap-bbox="true"
     showgrid="false"
     id="namedview40"
     inkscape:window-height="1017"
     inkscape:window-width="1920"
     inkscape:pageshadow="2"
     inkscape:pageopacity="0"
     guidetolerance="10"
     gridtolerance="10"
     objecttolerance="10"
     borderopacity="1"
     bordercolor="#666666"
     pagecolor="#ffffff"
     inkscape:showpageshadow="2"
     inkscape:pagecheckerboard="0"
     inkscape:deskcolor="#d1d1d1"
     inkscape:document-units="mm" />
  <g
     id="g6"
     transform="matrix(1, 0, 0, -1, 52, 113)">
    <path
       id="path2"
       d="M45.000 34.000 L38.750 34.000 38.750 30.000 23.250 30.000 23.250 34.000 7.750 34.000 7.750 30.000 -7.750 30.000 -7.750 34.000 -23.250 34.000 -23.250 30.000 -38.750 30.000 -38.750 34.000 -45.000 34.000 -45.000 30.000 -45.000 23.250 -49.000 23.250 -49.000 7.750 -45.000 7.750 -45.000 -7.750 -49.000 -7.750 -49.000 -23.250 -45.000 -23.250 -45.000 -30.000 -45.000 -34.000 -38.750 -34.000 -38.750 -30.000 -23.250 -30.000 -23.250 -34.000 -7.750 -34.000 -7.750 -30.000 7.750 -30.000 7.750 -34.000 23.250 -34.000 23.250 -30.000 38.750 -30.000 38.750 -34.000 45.000 -34.000 45.000 -30.000 45.000 -23.250 49.000 -23.250 49.000 -7.750 45.000 -7.750 45.000 7.750 49.000 7.750 49.000 23.250 45.000 23.250 45.000 30.000 Z"
       fill="none"
       stroke-width="0.25"
       stroke="#ff0000" />
    <path
       id="path4"
       fill="#000000"
       stroke-width="0.5"
       stroke="none"
       d="M -12.321 -3.768 L -13.257 -3.768 L -13.257 3.768 L -8.673 3.768 L -8.673 2.964 L -12.321 2.964 L -12.321 0.456 L -8.925 0.456 L -8.925 -0.348 L -12.321 -0.348 L -12.321 -3.768 Z M -6.033 -3.768 L -6.969 -3.768 L -6.969 1.980 L -6.033 1.980 L -6.033 -3.768 Z M -6.033 -1.176 L -6.321 -1.176 Q -6.321 -0.084 -6.111 0.639 Q -5.901 1.362 -5.496 1.719 Q -5.091 2.076 -4.509 2.076 L -4.509 2.076 Q -4.317 2.076 -4.158 2.049 Q -3.999 2.022 -3.837 1.968 L -3.837 1.968 L -3.897 1.044 Q -4.065 1.098 -4.263 1.137 Q -4.461 1.176 -4.617 1.176 L -4.617 1.176 Q -5.127 1.176 -5.439 0.885 Q -5.751 0.594 -5.892 0.066 Q -6.033 -0.462 -6.033 -1.176 L -6.033 -1.176 Z M -0.555 -3.912 L -0.555 -3.912 Q -1.329 -3.912 -1.932 -3.570 Q -2.535 -3.228 -2.883 -2.556 Q -3.231 -1.884 -3.231 -0.900 L -3.231 -0.900 Q -3.231 0.090 -2.883 0.759 Q -2.535 1.428 -1.932 1.770 Q -1.329 2.112 -0.555 2.112 L -0.555 2.112 Q 0.213 2.112 0.816 1.770 Q 1.419 1.428 1.764 0.759 Q 2.109 0.090 2.109 -0.900 L 2.109 -0.900 Q 2.109 -1.884 1.764 -2.556 Q 1.419 -3.228 0.816 -3.570 Q 0.213 -3.912 -0.555 -3.912 Z M -0.579 -3.096 L -0.579 -3.096 Q -0.021 -3.096 0.369 -2.829 Q 0.759 -2.562 0.960 -2.070 Q 1.161 -1.578 1.161 -0.900 L 1.161 -0.900 Q 1.161 0.126 0.735 0.717 Q 0.309 1.308 -0.531 1.308 L -0.531 1.308 Q -1.095 1.308 -1.482 1.041 Q -1.869 0.774 -2.070 0.279 Q -2.271 -0.216 -2.271 -0.900 L -2.271 -0.900 Q -2.271 -1.914 -1.842 -2.505 Q -1.413 -3.096 -0.579 -3.096 Z M 8.931 -3.768 L 8.007 -3.768 L 8.007 -0.396 Q 8.007 0.426 7.614 0.855 Q 7.221 1.284 6.543 1.284 L 6.543 1.284 Q 6.027 1.284 5.649 1.002 Q 5.271 0.720 5.067 0.195 Q 4.863 -0.330 4.863 -1.056 L 4.863 -1.056 L 4.503 -1.056 Q 4.503 -0.054 4.767 0.654 Q 5.031 1.362 5.538 1.737 Q 6.045 2.112 6.771 2.112 L 6.771 2.112 Q 7.449 2.112 7.932 1.809 Q 8.415 1.506 8.673 0.942 Q 8.931 0.378 8.931 -0.396 L 8.931 -0.396 L 8.931 -3.768 Z M 4.863 -3.768 L 3.927 -3.768 L 3.927 1.968 L 4.731 1.968 L 4.863 0.648 L 4.863 -3.768 Z M 12.933 -3.912 L 12.933 -3.912 Q 12.465 -3.912 12.093 -3.732 Q 11.721 -3.552 11.505 -3.192 Q 11.289 -2.832 11.289 -2.292 L 11.289 -2.292 L 11.289 3.564 L 12.213 3.564 L 12.213 -2.268 Q 12.213 -3.156 13.041 -3.156 L 13.041 -3.156 Q 13.287 -3.156 13.518 -3.102 Q 13.749 -3.048 14.037 -2.940 L 14.037 -2.940 L 14.169 -3.612 Q 13.863 -3.744 13.560 -3.828 Q 13.257 -3.912 12.933 -3.912 Z M 14.025 1.320 L 10.365 1.320 L 10.365 1.968 L 14.025 1.968 L 14.025 1.320 Z" />
  </g>
  <g
     id="g12"
     transform="matrix(1, 0, 0, -1, 153, 113)">
    <path
       id="path8"
       d="M45.000 34.000 L38.750 34.000 38.750 30.000 23.250 30.000 23.250 34.000 7.750 34.000 7.750 30.000 -7.750 30.000 -7.750 34.000 -23.250 34.000 -23.250 30.000 -38.750 30.000 -38.750 34.000 -45.000 34.000 -45.000 30.000 -45.000 23.250 -49.000 23.250 -49.000 7.750 -45.000 7.750 -45.000 -7.750 -49.000 -7.750 -49.000 -23.250 -45.000 -23.250 -45.000 -30.000 -45.000 -34.000 -38.750 -34.000 -38.750 -30.000 -23.250 -30.000 -23.250 -34.000 -7.750 -34.000 -7.750 -30.000 7.750 -30.000 7.750 -34.000 23.250 -34.000 23.250 -30.000 38.750 -30.000 38.750 -34.000 45.000 -34.000 45.000 -30.000 45.000 -23.250 49.000 -23.250 49.000 -7.750 45.000 -7.750 45.000 7.750 49.000 7.750 49.000 23.250 45.000 23.250 45.000 30.000 Z"
       fill="none"
       stroke-width="0.25"
       stroke="#ff0000" />
    <path
       id="path10"
       fill="#000000"
       stroke-width="0.5"
       stroke="none"
       d="M -9.477 -4.092 L -12.297 -4.092 L -12.297 3.444 L -9.477 3.444 Q -8.649 3.444 -8.103 3.171 Q -7.557 2.898 -7.287 2.451 Q -7.017 2.004 -7.017 1.476 L -7.017 1.476 Q -7.017 0.828 -7.374 0.351 Q -7.731 -0.126 -8.445 -0.300 L -8.445 -0.300 Q -7.983 -0.372 -7.632 -0.627 Q -7.281 -0.882 -7.083 -1.251 Q -6.885 -1.620 -6.885 -2.040 L -6.885 -2.040 Q -6.885 -2.424 -7.014 -2.790 Q -7.143 -3.156 -7.443 -3.450 Q -7.743 -3.744 -8.241 -3.918 Q -8.739 -4.092 -9.477 -4.092 L -9.477 -4.092 Z M -11.361 -0.732 L -11.361 -3.276 L -9.489 -3.276 Q -8.631 -3.276 -8.256 -2.916 Q -7.881 -2.556 -7.881 -1.992 L -7.881 -1.992 Q -7.881 -1.422 -8.289 -1.077 Q -8.697 -0.732 -9.489 -0.732 L -9.489 -0.732 L -11.361 -0.732 Z M -9.501 2.640 L -11.361 2.640 L -11.361 0.072 L -9.513 0.072 Q -8.811 0.072 -8.394 0.417 Q -7.977 0.762 -7.977 1.392 L -7.977 1.392 Q -7.977 1.980 -8.382 2.310 Q -8.787 2.640 -9.501 2.640 L -9.501 2.640 Z M -0.471 -4.092 L -1.287 -4.092 L -1.407 -2.832 L -1.407 -0.372 Q -1.407 0.402 -1.737 0.741 Q -2.067 1.080 -2.727 1.080 L -2.727 1.080 Q -3.099 1.080 -3.402 0.972 Q -3.705 0.864 -3.882 0.639 Q -4.059 0.414 -4.059 0.060 L -4.059 0.060 L -5.103 0.060 Q -5.103 0.684 -4.797 1.065 Q -4.491 1.446 -3.954 1.617 Q -3.417 1.788 -2.727 1.788 L -2.727 1.788 Q -2.067 1.788 -1.557 1.566 Q -1.047 1.344 -0.759 0.861 Q -0.471 0.378 -0.471 -0.396 L -0.471 -0.396 L -0.471 -4.092 Z M -3.243 -4.236 L -3.243 -4.236 Q -3.951 -4.236 -4.413 -3.984 Q -4.875 -3.732 -5.103 -3.330 Q -5.331 -2.928 -5.331 -2.484 L -5.331 -2.484 Q -5.331 -1.902 -5.040 -1.536 Q -4.749 -1.170 -4.245 -0.999 Q -3.741 -0.828 -3.111 -0.828 L -3.111 -0.828 Q -2.661 -0.828 -2.208 -0.918 Q -1.755 -1.008 -1.323 -1.164 L -1.323 -1.164 L -1.323 -1.752 Q -1.683 -1.608 -2.136 -1.524 Q -2.589 -1.440 -2.967 -1.440 L -2.967 -1.440 Q -3.543 -1.440 -3.939 -1.677 Q -4.335 -1.914 -4.335 -2.484 L -4.335 -2.484 Q -4.335 -2.904 -4.032 -3.204 Q -3.729 -3.504 -3.063 -3.504 L -3.063 -3.504 Q -2.595 -3.504 -2.220 -3.285 Q -1.845 -3.066 -1.626 -2.736 Q -1.407 -2.406 -1.407 -2.076 L -1.407 -2.076 L -1.179 -2.076 Q -1.179 -2.652 -1.428 -3.144 Q -1.677 -3.636 -2.139 -3.936 Q -2.601 -4.236 -3.243 -4.236 Z M 3.783 -4.236 L 3.783 -4.236 Q 3.093 -4.236 2.496 -3.864 Q 1.899 -3.492 1.533 -2.814 Q 1.167 -2.136 1.167 -1.212 L 1.167 -1.212 Q 1.167 -0.264 1.533 0.408 Q 1.899 1.080 2.496 1.434 Q 3.093 1.788 3.783 1.788 L 3.783 1.788 Q 4.269 1.788 4.656 1.641 Q 5.043 1.494 5.331 1.236 Q 5.619 0.978 5.808 0.651 Q 5.997 0.324 6.087 -0.036 L 6.087 -0.036 L 5.127 -0.120 Q 4.977 0.378 4.626 0.669 Q 4.275 0.960 3.771 0.960 L 3.771 0.960 Q 3.345 0.960 2.970 0.717 Q 2.595 0.474 2.361 -0.009 Q 2.127 -0.492 2.127 -1.212 L 2.127 -1.212 Q 2.127 -1.878 2.340 -2.367 Q 2.553 -2.856 2.925 -3.126 Q 3.297 -3.396 3.771 -3.396 L 3.771 -3.396 Q 4.437 -3.396 4.782 -3.069 Q 5.127 -2.742 5.127 -2.160 L 5.127 -2.160 L 6.087 -2.160 Q 6.087 -2.760 5.805 -3.228 Q 5.523 -3.696 5.004 -3.966 Q 4.485 -4.236 3.783 -4.236 Z M 8.895 -4.092 L 7.959 -4.092 L 7.959 4.092 L 8.895 4.092 L 8.895 -4.092 Z M 8.751 -1.800 L 8.751 -0.804 L 11.679 1.644 L 12.987 1.644 L 8.751 -1.800 Z M 13.119 -4.092 L 11.967 -4.092 L 9.243 -0.468 L 10.191 -0.300 L 13.119 -4.092 Z" />
  </g>
  <g
     id="g18"
     transform="matrix(1, 0, 0, -1, 241.5, 113)">
    <path
       id="path14"
       d="M36.500 34.000 L32.500 34.000 23.250 34.000 23.250 30.000 7.750 30.000 7.750 34.000 -7.750 34.000 -7.750 30.000 -23.250 30.000 -23.250 34.000 -32.500 34.000 -36.500 34.000 -36.500 30.000 -36.500 23.250 -32.500 23.250 -32.500 7.750 -36.500 7.750 -36.500 -7.750 -32.500 -7.750 -32.500 -23.250 -36.500 -23.250 -36.500 -30.000 -36.500 -34.000 -32.500 -34.000 -23.250 -34.000 -23.250 -30.000 -7.750 -30.000 -7.750 -34.000 7.750 -34.000 7.750 -30.000 23.250 -30.000 23.250 -34.000 32.500 -34.000 36.500 -34.000 36.500 -30.000 36.500 -23.250 32.500 -23.250 32.500 -7.750 36.500 -7.750 36.500 7.750 32.500 7.750 32.500 23.250 36.500 23.250 36.500 30.000 Z"
       fill="none"
       stroke-width="0.25"
       stroke="#ff0000" />
    <path
       id="path16"
       fill="#000000"
       stroke-width="0.5"
       stroke="none"
       d="M -8.985 3.402 L -8.049 3.402 L -8.049 -3.318 L -4.689 -3.318 L -4.689 -4.134 L -8.985 -4.134 L -8.985 3.402 Z M -1.383 -4.278 L -1.383 -4.278 Q -2.127 -4.278 -2.712 -3.897 Q -3.297 -3.516 -3.636 -2.838 Q -3.975 -2.160 -3.975 -1.278 L -3.975 -1.278 Q -3.975 -0.336 -3.639 0.342 Q -3.303 1.020 -2.718 1.383 Q -2.133 1.746 -1.383 1.746 L -1.383 1.746 Q -0.729 1.746 -0.267 1.482 Q 0.195 1.218 0.477 0.768 Q 0.759 0.318 0.870 -0.249 Q 0.981 -0.816 0.933 -1.422 L 0.933 -1.422 L -3.219 -1.422 L -3.219 -0.846 L 0.315 -0.846 L 0.039 -1.026 Q 0.057 -0.672 -0.000 -0.318 Q -0.057 0.036 -0.213 0.333 Q -0.369 0.630 -0.651 0.810 Q -0.933 0.990 -1.371 0.990 L -1.371 0.990 Q -1.923 0.990 -2.295 0.708 Q -2.667 0.426 -2.853 -0.033 Q -3.039 -0.492 -3.039 -1.026 L -3.039 -1.026 L -3.039 -1.410 Q -3.039 -2.010 -2.856 -2.484 Q -2.673 -2.958 -2.307 -3.234 Q -1.941 -3.510 -1.383 -3.510 L -1.383 -3.510 Q -0.825 -3.510 -0.465 -3.240 Q -0.105 -2.970 -0.027 -2.442 L -0.027 -2.442 L 0.945 -2.442 Q 0.855 -3.012 0.537 -3.423 Q 0.219 -3.834 -0.273 -4.056 Q -0.765 -4.278 -1.383 -4.278 Z M 4.035 -4.134 L 3.099 -4.134 L 3.099 2.490 Q 3.099 3.060 3.318 3.423 Q 3.537 3.786 3.906 3.960 Q 4.275 4.134 4.731 4.134 L 4.731 4.134 Q 4.977 4.134 5.232 4.098 Q 5.487 4.062 5.739 3.990 L 5.739 3.990 L 5.559 3.246 Q 5.379 3.318 5.202 3.354 Q 5.025 3.390 4.863 3.390 L 4.863 3.390 Q 4.671 3.390 4.479 3.318 Q 4.287 3.246 4.161 3.048 Q 4.035 2.850 4.035 2.478 L 4.035 2.478 L 4.035 -4.134 Z M 5.223 0.954 L 2.163 0.954 L 2.163 1.602 L 5.223 1.602 L 5.223 0.954 Z M 8.661 -4.278 L 8.661 -4.278 Q 8.193 -4.278 7.821 -4.098 Q 7.449 -3.918 7.233 -3.558 Q 7.017 -3.198 7.017 -2.658 L 7.017 -2.658 L 7.017 3.198 L 7.941 3.198 L 7.941 -2.634 Q 7.941 -3.522 8.769 -3.522 L 8.769 -3.522 Q 9.015 -3.522 9.246 -3.468 Q 9.477 -3.414 9.765 -3.306 L 9.765 -3.306 L 9.897 -3.978 Q 9.591 -4.110 9.288 -4.194 Q 8.985 -4.278 8.661 -4.278 Z M 9.753 0.954 L 6.093 0.954 L 6.093 1.602 L 9.753 1.602 L 9.753 0.954 Z" />
  </g>
  <g
     id="g24"
     transform="matrix(1, 0, 0, -1, 241.5, 42)">
    <path
       id="path20"
       d="M36.500 34.000 L32.500 34.000 23.250 34.000 23.250 30.000 7.750 30.000 7.750 34.000 -7.750 34.000 -7.750 30.000 -23.250 30.000 -23.250 34.000 -32.500 34.000 -36.500 34.000 -36.500 30.000 -36.500 23.250 -32.500 23.250 -32.500 7.750 -36.500 7.750 -36.500 -7.750 -32.500 -7.750 -32.500 -23.250 -36.500 -23.250 -36.500 -30.000 -36.500 -34.000 -32.500 -34.000 -23.250 -34.000 -23.250 -30.000 -7.750 -30.000 -7.750 -34.000 7.750 -34.000 7.750 -30.000 23.250 -30.000 23.250 -34.000 32.500 -34.000 36.500 -34.000 36.500 -30.000 36.500 -23.250 32.500 -23.250 32.500 -7.750 36.500 -7.750 36.500 7.750 32.500 7.750 32.500 23.250 36.500 23.250 36.500 30.000 Z"
       fill="none"
       stroke-width="0.25"
       stroke="#ff0000" />
    <path
       id="path22"
       fill="#000000"
       stroke-width="0.5"
       stroke="none"
       d="M -12.579 -4.134 L -13.515 -4.134 L -13.515 3.402 L -10.887 3.402 Q -9.597 3.402 -8.934 2.787 Q -8.271 2.172 -8.271 1.170 L -8.271 1.170 Q -8.271 0.180 -8.934 -0.435 Q -9.597 -1.050 -10.887 -1.050 L -10.887 -1.050 L -12.579 -1.050 L -12.579 -4.134 Z M -8.079 -4.134 L -9.291 -4.134 L -11.451 -0.714 L -10.431 -0.714 L -8.079 -4.134 Z M -12.579 2.598 L -12.579 -0.390 L -10.959 -0.390 Q -10.113 -0.390 -9.672 0.027 Q -9.231 0.444 -9.231 1.110 L -9.231 1.110 Q -9.231 1.794 -9.654 2.196 Q -10.077 2.598 -10.887 2.598 L -10.887 2.598 L -12.579 2.598 Z M -5.637 2.958 L -5.637 2.958 Q -5.925 2.958 -6.093 3.123 Q -6.261 3.288 -6.261 3.558 L -6.261 3.558 Q -6.261 3.822 -6.093 3.978 Q -5.925 4.134 -5.637 4.134 L -5.637 4.134 Q -5.349 4.134 -5.181 3.978 Q -5.013 3.822 -5.013 3.558 L -5.013 3.558 Q -5.013 3.288 -5.181 3.123 Q -5.349 2.958 -5.637 2.958 Z M -5.169 -4.134 L -6.105 -4.134 L -6.105 1.614 L -5.169 1.614 L -5.169 -4.134 Z M -0.561 -7.086 L -0.561 -7.086 Q -1.443 -7.086 -2.091 -6.837 Q -2.739 -6.588 -3.096 -6.171 Q -3.453 -5.754 -3.453 -5.250 L -3.453 -5.250 Q -3.453 -4.584 -2.964 -4.233 Q -2.475 -3.882 -1.701 -3.882 L -1.701 -3.882 L -1.185 -4.206 Q -1.833 -4.206 -2.187 -4.476 Q -2.541 -4.746 -2.541 -5.214 L -2.541 -5.214 Q -2.541 -5.682 -2.037 -6.006 Q -1.533 -6.330 -0.561 -6.330 L -0.561 -6.330 Q 0.159 -6.330 0.702 -6.123 Q 1.245 -5.916 1.548 -5.583 Q 1.851 -5.250 1.851 -4.866 L 1.851 -4.866 Q 1.851 -4.596 1.653 -4.401 Q 1.455 -4.206 1.047 -4.206 L 1.047 -4.206 L -1.185 -4.206 Q -1.767 -4.206 -2.190 -4.029 Q -2.613 -3.852 -2.841 -3.564 Q -3.069 -3.276 -3.069 -2.934 L -3.069 -2.934 Q -3.069 -2.574 -2.865 -2.322 Q -2.661 -2.070 -2.334 -1.938 Q -2.007 -1.806 -1.629 -1.806 L -1.629 -1.806 L -1.449 -2.154 Q -1.629 -2.154 -1.812 -2.235 Q -1.995 -2.316 -2.118 -2.475 Q -2.241 -2.634 -2.241 -2.874 L -2.241 -2.874 Q -2.241 -3.150 -2.013 -3.336 Q -1.785 -3.522 -1.185 -3.522 L -1.185 -3.522 L 1.047 -3.522 Q 1.857 -3.522 2.322 -3.864 Q 2.787 -4.206 2.787 -4.818 L 2.787 -4.818 Q 2.787 -5.382 2.385 -5.901 Q 1.983 -6.420 1.233 -6.753 Q 0.483 -7.086 -0.561 -7.086 Z M -0.393 -2.454 L -0.393 -2.454 Q -1.053 -2.454 -1.584 -2.190 Q -2.115 -1.926 -2.424 -1.452 Q -2.733 -0.978 -2.733 -0.354 L -2.733 -0.354 Q -2.733 0.276 -2.424 0.750 Q -2.115 1.224 -1.584 1.485 Q -1.053 1.746 -0.393 1.746 L -0.393 1.746 Q 0.249 1.746 0.774 1.485 Q 1.299 1.224 1.611 0.750 Q 1.923 0.276 1.923 -0.354 L 1.923 -0.354 Q 1.923 -0.978 1.611 -1.452 Q 1.299 -1.926 0.774 -2.190 Q 0.249 -2.454 -0.393 -2.454 Z M -0.393 -1.782 L -0.393 -1.782 Q 0.267 -1.782 0.633 -1.374 Q 0.999 -0.966 0.999 -0.354 L 0.999 -0.354 Q 0.999 0.276 0.633 0.669 Q 0.267 1.062 -0.393 1.062 L -0.393 1.062 Q -1.047 1.062 -1.422 0.669 Q -1.797 0.276 -1.797 -0.354 L -1.797 -0.354 Q -1.797 -0.966 -1.422 -1.374 Q -1.047 -1.782 -0.393 -1.782 Z M 1.491 0.834 L 1.491 0.834 L 1.047 1.014 Q 1.047 1.518 1.245 1.899 Q 1.443 2.280 1.809 2.493 Q 2.175 2.706 2.679 2.706 L 2.679 2.706 L 2.607 1.782 Q 2.067 1.782 1.779 1.551 Q 1.491 1.320 1.491 0.834 Z M 9.189 -4.134 L 8.265 -4.134 L 8.265 -0.762 Q 8.265 0.060 7.872 0.489 Q 7.479 0.918 6.801 0.918 L 6.801 0.918 Q 6.285 0.918 5.907 0.636 Q 5.529 0.354 5.325 -0.171 Q 5.121 -0.696 5.121 -1.422 L 5.121 -1.422 L 4.761 -1.422 Q 4.761 -0.420 5.025 0.288 Q 5.289 0.996 5.796 1.371 Q 6.303 1.746 7.029 1.746 L 7.029 1.746 Q 7.707 1.746 8.190 1.443 Q 8.673 1.140 8.931 0.576 Q 9.189 0.012 9.189 -0.762 L 9.189 -0.762 L 9.189 -4.134 Z M 5.121 -4.134 L 4.185 -4.134 L 4.185 4.050 L 5.121 4.050 L 5.121 -4.134 Z M 13.191 -4.278 L 13.191 -4.278 Q 12.723 -4.278 12.351 -4.098 Q 11.979 -3.918 11.763 -3.558 Q 11.547 -3.198 11.547 -2.658 L 11.547 -2.658 L 11.547 3.198 L 12.471 3.198 L 12.471 -2.634 Q 12.471 -3.522 13.299 -3.522 L 13.299 -3.522 Q 13.545 -3.522 13.776 -3.468 Q 14.007 -3.414 14.295 -3.306 L 14.295 -3.306 L 14.427 -3.978 Q 14.121 -4.110 13.818 -4.194 Q 13.515 -4.278 13.191 -4.278 Z M 14.283 0.954 L 10.623 0.954 L 10.623 1.602 L 14.283 1.602 L 14.283 0.954 Z" />
  </g>
  <g
     id="g30"
     transform="matrix(1, 0, 0, -1, 52, 39.5)">
    <path
       id="path26"
       d="M38.750 36.500 L23.250 36.500 23.250 32.500 7.750 32.500 7.750 36.500 -7.750 36.500 -7.750 32.500 -23.250 32.500 -23.250 36.500 -38.750 36.500 -38.750 32.500 -45.000 32.500 -45.000 23.250 -49.000 23.250 -49.000 7.750 -45.000 7.750 -45.000 -7.750 -49.000 -7.750 -49.000 -23.250 -45.000 -23.250 -45.000 -32.500 -38.750 -32.500 -38.750 -36.500 -23.250 -36.500 -23.250 -32.500 -7.750 -32.500 -7.750 -36.500 7.750 -36.500 7.750 -32.500 23.250 -32.500 23.250 -36.500 38.750 -36.500 38.750 -32.500 45.000 -32.500 45.000 -23.250 49.000 -23.250 49.000 -7.750 45.000 -7.750 45.000 7.750 49.000 7.750 49.000 23.250 45.000 23.250 45.000 32.500 38.750 32.500 Z"
       fill="none"
       stroke-width="0.25"
       stroke="#ff0000" />
    <path
       id="path28"
       fill="#000000"
       stroke-width="0.5"
       stroke="none"
       d="M -16.380 -3.768 L -19.200 -3.768 L -19.200 3.768 L -16.380 3.768 Q -15.552 3.768 -15.006 3.495 Q -14.460 3.222 -14.190 2.775 Q -13.920 2.328 -13.920 1.800 L -13.920 1.800 Q -13.920 1.152 -14.277 0.675 Q -14.634 0.198 -15.348 0.024 L -15.348 0.024 Q -14.886 -0.048 -14.535 -0.303 Q -14.184 -0.558 -13.986 -0.927 Q -13.788 -1.296 -13.788 -1.716 L -13.788 -1.716 Q -13.788 -2.100 -13.917 -2.466 Q -14.046 -2.832 -14.346 -3.126 Q -14.646 -3.420 -15.144 -3.594 Q -15.642 -3.768 -16.380 -3.768 L -16.380 -3.768 Z M -18.264 -0.408 L -18.264 -2.952 L -16.392 -2.952 Q -15.534 -2.952 -15.159 -2.592 Q -14.784 -2.232 -14.784 -1.668 L -14.784 -1.668 Q -14.784 -1.098 -15.192 -0.753 Q -15.600 -0.408 -16.392 -0.408 L -16.392 -0.408 L -18.264 -0.408 Z M -16.404 2.964 L -18.264 2.964 L -18.264 0.396 L -16.416 0.396 Q -15.714 0.396 -15.297 0.741 Q -14.880 1.086 -14.880 1.716 L -14.880 1.716 Q -14.880 2.304 -15.285 2.634 Q -15.690 2.964 -16.404 2.964 L -16.404 2.964 Z M -9.666 -3.912 L -9.666 -3.912 Q -10.440 -3.912 -11.043 -3.570 Q -11.646 -3.228 -11.994 -2.556 Q -12.342 -1.884 -12.342 -0.900 L -12.342 -0.900 Q -12.342 0.090 -11.994 0.759 Q -11.646 1.428 -11.043 1.770 Q -10.440 2.112 -9.666 2.112 L -9.666 2.112 Q -8.898 2.112 -8.295 1.770 Q -7.692 1.428 -7.347 0.759 Q -7.002 0.090 -7.002 -0.900 L -7.002 -0.900 Q -7.002 -1.884 -7.347 -2.556 Q -7.692 -3.228 -8.295 -3.570 Q -8.898 -3.912 -9.666 -3.912 Z M -9.690 -3.096 L -9.690 -3.096 Q -9.132 -3.096 -8.742 -2.829 Q -8.352 -2.562 -8.151 -2.070 Q -7.950 -1.578 -7.950 -0.900 L -7.950 -0.900 Q -7.950 0.126 -8.376 0.717 Q -8.802 1.308 -9.642 1.308 L -9.642 1.308 Q -10.206 1.308 -10.593 1.041 Q -10.980 0.774 -11.181 0.279 Q -11.382 -0.216 -11.382 -0.900 L -11.382 -0.900 Q -11.382 -1.914 -10.953 -2.505 Q -10.524 -3.096 -9.690 -3.096 Z M -3.420 -3.912 L -3.420 -3.912 Q -3.888 -3.912 -4.260 -3.732 Q -4.632 -3.552 -4.848 -3.192 Q -5.064 -2.832 -5.064 -2.292 L -5.064 -2.292 L -5.064 3.564 L -4.140 3.564 L -4.140 -2.268 Q -4.140 -3.156 -3.312 -3.156 L -3.312 -3.156 Q -3.066 -3.156 -2.835 -3.102 Q -2.604 -3.048 -2.316 -2.940 L -2.316 -2.940 L -2.184 -3.612 Q -2.490 -3.744 -2.793 -3.828 Q -3.096 -3.912 -3.420 -3.912 Z M -2.328 1.320 L -5.988 1.320 L -5.988 1.968 L -2.328 1.968 L -2.328 1.320 Z M 1.092 -3.912 L 1.092 -3.912 Q 0.624 -3.912 0.252 -3.732 Q -0.120 -3.552 -0.336 -3.192 Q -0.552 -2.832 -0.552 -2.292 L -0.552 -2.292 L -0.552 3.564 L 0.372 3.564 L 0.372 -2.268 Q 0.372 -3.156 1.200 -3.156 L 1.200 -3.156 Q 1.446 -3.156 1.677 -3.102 Q 1.908 -3.048 2.196 -2.940 L 2.196 -2.940 L 2.328 -3.612 Q 2.022 -3.744 1.719 -3.828 Q 1.416 -3.912 1.092 -3.912 Z M 2.184 1.320 L -1.476 1.320 L -1.476 1.968 L 2.184 1.968 L 2.184 1.320 Z M 5.916 -3.912 L 5.916 -3.912 Q 5.142 -3.912 4.539 -3.570 Q 3.936 -3.228 3.588 -2.556 Q 3.240 -1.884 3.240 -0.900 L 3.240 -0.900 Q 3.240 0.090 3.588 0.759 Q 3.936 1.428 4.539 1.770 Q 5.142 2.112 5.916 2.112 L 5.916 2.112 Q 6.684 2.112 7.287 1.770 Q 7.890 1.428 8.235 0.759 Q 8.580 0.090 8.580 -0.900 L 8.580 -0.900 Q 8.580 -1.884 8.235 -2.556 Q 7.890 -3.228 7.287 -3.570 Q 6.684 -3.912 5.916 -3.912 Z M 5.892 -3.096 L 5.892 -3.096 Q 6.450 -3.096 6.840 -2.829 Q 7.230 -2.562 7.431 -2.070 Q 7.632 -1.578 7.632 -0.900 L 7.632 -0.900 Q 7.632 0.126 7.206 0.717 Q 6.780 1.308 5.940 1.308 L 5.940 1.308 Q 5.376 1.308 4.989 1.041 Q 4.602 0.774 4.401 0.279 Q 4.200 -0.216 4.200 -0.900 L 4.200 -0.900 Q 4.200 -1.914 4.629 -2.505 Q 5.058 -3.096 5.892 -3.096 Z M 19.398 -3.768 L 18.462 -3.768 L 18.462 -0.396 Q 18.462 0.426 18.069 0.855 Q 17.676 1.284 17.010 1.284 L 17.010 1.284 Q 16.230 1.284 15.816 0.681 Q 15.402 0.078 15.402 -0.984 L 15.402 -0.984 L 14.970 -0.984 Q 14.970 -0.210 15.123 0.372 Q 15.276 0.954 15.570 1.341 Q 15.864 1.728 16.284 1.920 Q 16.704 2.112 17.238 2.112 L 17.238 2.112 Q 17.916 2.112 18.399 1.809 Q 18.882 1.506 19.140 0.942 Q 19.398 0.378 19.398 -0.396 L 19.398 -0.396 L 19.398 -3.768 Z M 11.334 -3.768 L 10.398 -3.768 L 10.398 1.968 L 11.202 1.968 L 11.310 0.816 Q 11.580 1.440 12.069 1.776 Q 12.558 2.112 13.242 2.112 L 13.242 2.112 Q 13.920 2.112 14.403 1.809 Q 14.886 1.506 15.144 0.942 Q 15.402 0.378 15.402 -0.396 L 15.402 -0.396 L 15.402 -3.768 L 14.478 -3.768 L 14.478 -0.396 Q 14.478 0.426 14.085 0.855 Q 13.692 1.284 13.014 1.284 L 13.014 1.284 Q 12.498 1.284 12.120 1.002 Q 11.742 0.720 11.538 0.195 Q 11.334 -0.330 11.334 -1.056 L 11.334 -1.056 L 11.334 -3.768 Z" />
  </g>
  <g
     id="g36"
     transform="matrix(1, 0, 0, -1, 153, 39.5)">
    <path
       id="path32"
       d="M38.750 36.500 L23.250 36.500 23.250 32.500 7.750 32.500 7.750 36.500 -7.750 36.500 -7.750 32.500 -23.250 32.500 -23.250 36.500 -38.750 36.500 -38.750 32.500 -45.000 32.500 -45.000 23.250 -49.000 23.250 -49.000 7.750 -45.000 7.750 -45.000 -7.750 -49.000 -7.750 -49.000 -23.250 -45.000 -23.250 -45.000 -32.500 -38.750 -32.500 -38.750 -36.500 -23.250 -36.500 -23.250 -32.500 -7.750 -32.500 -7.750 -36.500 7.750 -36.500 7.750 -32.500 23.250 -32.500 23.250 -36.500 38.750 -36.500 38.750 -32.500 45.000 -32.500 45.000 -23.250 49.000 -23.250 49.000 -7.750 45.000 -7.750 45.000 7.750 49.000 7.750 49.000 23.250 45.000 23.250 45.000 32.500 38.750 32.500 Z"
       fill="none"
       stroke-width="0.25"
       stroke="#ff0000" />
    <path
       id="path34"
       fill="#000000"
       stroke-width="0.5"
       stroke="none"
       d="M -7.047 2.964 L -9.717 2.964 L -9.717 3.768 L -3.849 3.768 L -3.849 2.964 L -6.531 2.964 L -6.321 3.180 L -6.321 -3.768 L -7.257 -3.768 L -7.257 3.180 L -7.047 2.964 Z M -0.495 -3.912 L -0.495 -3.912 Q -1.269 -3.912 -1.872 -3.570 Q -2.475 -3.228 -2.823 -2.556 Q -3.171 -1.884 -3.171 -0.900 L -3.171 -0.900 Q -3.171 0.090 -2.823 0.759 Q -2.475 1.428 -1.872 1.770 Q -1.269 2.112 -0.495 2.112 L -0.495 2.112 Q 0.273 2.112 0.876 1.770 Q 1.479 1.428 1.824 0.759 Q 2.169 0.090 2.169 -0.900 L 2.169 -0.900 Q 2.169 -1.884 1.824 -2.556 Q 1.479 -3.228 0.876 -3.570 Q 0.273 -3.912 -0.495 -3.912 Z M -0.519 -3.096 L -0.519 -3.096 Q 0.039 -3.096 0.429 -2.829 Q 0.819 -2.562 1.020 -2.070 Q 1.221 -1.578 1.221 -0.900 L 1.221 -0.900 Q 1.221 0.126 0.795 0.717 Q 0.369 1.308 -0.471 1.308 L -0.471 1.308 Q -1.035 1.308 -1.422 1.041 Q -1.809 0.774 -2.010 0.279 Q -2.211 -0.216 -2.211 -0.900 L -2.211 -0.900 Q -2.211 -1.914 -1.782 -2.505 Q -1.353 -3.096 -0.519 -3.096 Z M 6.591 -3.912 L 6.591 -3.912 Q 5.961 -3.912 5.496 -3.624 Q 5.031 -3.336 4.779 -2.781 Q 4.527 -2.226 4.527 -1.428 L 4.527 -1.428 L 4.923 -1.428 Q 4.923 -1.962 5.145 -2.328 Q 5.367 -2.694 5.724 -2.883 Q 6.081 -3.072 6.483 -3.072 L 6.483 -3.072 Q 6.915 -3.072 7.311 -2.823 Q 7.707 -2.574 7.959 -2.088 Q 8.211 -1.602 8.211 -0.888 L 8.211 -0.888 Q 8.211 -0.204 7.980 0.282 Q 7.749 0.768 7.359 1.026 Q 6.969 1.284 6.495 1.284 L 6.495 1.284 Q 6.087 1.284 5.727 1.086 Q 5.367 0.888 5.145 0.507 Q 4.923 0.126 4.923 -0.432 L 4.923 -0.432 L 4.527 -0.432 Q 4.527 0.402 4.803 0.969 Q 5.079 1.536 5.553 1.824 Q 6.027 2.112 6.615 2.112 L 6.615 2.112 Q 7.287 2.112 7.869 1.752 Q 8.451 1.392 8.811 0.720 Q 9.171 0.048 9.171 -0.888 L 9.171 -0.888 Q 9.171 -1.836 8.808 -2.514 Q 8.445 -3.192 7.857 -3.552 Q 7.269 -3.912 6.591 -3.912 Z M 4.923 -6.588 L 3.987 -6.588 L 3.987 1.968 L 4.767 1.968 L 4.923 0.624 L 4.923 -6.588 Z" />
  </g>
  <rect
     y="11.95"
     x="11.95"
     height="4.9000001"
     width="4.9000001"
     id="rect903-0"
     style="opacity:0.994;fill:none;stroke:#ff0000;stroke-width:0.1" />
  <circle
     r="0.94999999"
     cy="11.9"
     cx="11.900001"
     id="path905-1"
     style="opacity:0.994;fill:none;stroke:#ff0000;stroke-width:0.2" />
  <rect
     y="62.150002"
     x="11.95"
     height="4.9000001"
     width="4.9000001"
     id="rect903-0-5"
     style="opacity:0.994;fill:none;stroke:#ff0000;stroke-width:0.1" />
  <circle
     r="0.94999999"
     cy="67.099998"
     cx="11.900001"
     id="path905-1-4"
     style="opacity:0.994;fill:none;stroke:#ff0000;stroke-width:0.2" />
  <rect
     y="62.150002"
     x="87.149994"
     height="4.9000001"
     width="4.9000001"
     id="rect903-0-9"
     style="opacity:0.994;fill:none;stroke:#ff0000;stroke-width:0.1" />
  <circle
     r="0.94999999"
     cy="67.099998"
     cx="92.099998"
     id="path905-1-6"
     style="opacity:0.994;fill:none;stroke:#ff0000;stroke-width:0.2" />
  <rect
     y="11.95"
     x="87.149994"
     height="4.9000001"
     width="4.9000001"
     id="rect903-0-1"
     style="opacity:0.994;fill:none;stroke:#ff0000;stroke-width:0.1" />
  <circle
     r="0.94999999"
     cy="11.9"
     cx="92.099998"
     id="path905-1-7"
     style="opacity:0.994;fill:none;stroke:#ff0000;stroke-width:0.2" />
  <rect
     style="opacity:0.994;fill:none;stroke:#ff0000;stroke-width:0.1"
     id="rect903-0-3"
     width="4.9000001"
     height="4.9000001"
     x="112.95"
     y="11.95" />
  <circle
     style="opacity:0.994;fill:none;stroke:#ff0000;stroke-width:0.2"
     id="path905-1-2"
     cx="112.9"
     cy="11.9"
     r="0.94999999" />
  <rect
     style="opacity:0.994;fill:none;stroke:#ff0000;stroke-width:0.1"
     id="rect903-0-5-8"
     width="4.9000001"
     height="4.9000001"
     x="112.95"
     y="62.150002" />
  <circle
     style="opacity:0.994;fill:none;stroke:#ff0000;stroke-width:0.2"
     id="path905-1-4-3"
     cx="112.9"
     cy="67.099998"
     r="0.94999999" />
  <rect
     style="opacity:0.994;fill:none;stroke:#ff0000;stroke-width:0.1"
     id="rect903-0-9-0"
     width="4.9000001"
     height="4.9000001"
     x="188.14999"
     y="62.150002" />
  <circle
     style="opacity:0.994;fill:none;stroke:#ff0000;stroke-width:0.2"
     id="path905-1-6-9"
     cx="193.09999"
     cy="67.099998"
     r="0.94999999" />
  <rect
     style="opacity:0.994;fill:none;stroke:#ff0000;stroke-width:0.1"
     id="rect903-0-1-9"
     width="4.9000001"
     height="4.9000001"
     x="188.14999"
     y="11.95" />
  <circle
     style="opacity:0.994;fill:none;stroke:#ff0000;stroke-width:0.2"
     id="path905-1-7-0"
     cx="193.09999"
     cy="11.9"
     r="0.94999999" />
  <g
     transform="translate(6.5348483,89.090909)"
     id="g909-7-5">
    <rect
       style="opacity:0.994;fill:none;stroke:#0000ff;stroke-width:0.2"
       id="rect903-0-53"
       width="9.8000002"
       height="9.8000002"
       x="0.4651517"
       y="-6.0909095" />
    <circle
       style="opacity:0.994;fill:none;stroke:#ff0000;stroke-width:0.2"
       id="path905-1-45"
       cx="5.3651519"
       cy="-1.1909094"
       r="0.94999999" />
  </g>
  <g
     transform="translate(6.5348483,139.29091)"
     id="g909-7-3-5">
    <rect
       style="opacity:0.994;fill:none;stroke:#0000ff;stroke-width:0.2"
       id="rect903-0-5-4"
       width="9.8000002"
       height="9.8000002"
       x="0.4651517"
       y="-6.0909095" />
    <circle
       style="opacity:0.994;fill:none;stroke:#ff0000;stroke-width:0.2"
       id="path905-1-4-8"
       cx="5.3651519"
       cy="-1.1909094"
       r="0.94999999" />
  </g>
  <g
     transform="translate(86.734851,139.29091)"
     id="g909-7-8-9">
    <rect
       style="opacity:0.994;fill:none;stroke:#0000ff;stroke-width:0.2"
       id="rect903-0-9-8"
       width="9.8000002"
       height="9.8000002"
       x="0.4651517"
       y="-6.0909095" />
    <circle
       style="opacity:0.994;fill:none;stroke:#ff0000;stroke-width:0.2"
       id="path905-1-6-4"
       cx="5.3651519"
       cy="-1.1909094"
       r="0.94999999" />
  </g>
  <g
     transform="translate(86.734848,89.090909)"
     id="g909-7-38-7">
    <rect
       style="opacity:0.994;fill:none;stroke:#0000ff;stroke-width:0.2"
       id="rect903-0-1-0"
       width="9.8000002"
       height="9.8000002"
       x="0.4651517"
       y="-6.0909095" />
    <circle
       style="opacity:0.994;fill:none;stroke:#ff0000;stroke-width:0.2"
       id="path905-1-7-8"
       cx="5.3651519"
       cy="-1.1909094"
       r="0.94999999" />
  </g>
  <g
     id="g909-7-5-7"
     transform="translate(107.53485,89.090909)">
    <rect
       y="-6.0909095"
       x="0.4651517"
       height="9.8000002"
       width="9.8000002"
       id="rect903-0-53-2"
       style="opacity:0.994;fill:none;stroke:#0000ff;stroke-width:0.2" />
    <circle
       r="0.94999999"
       cy="-1.1909094"
       cx="5.3651519"
       id="path905-1-45-7"
       style="opacity:0.994;fill:none;stroke:#ff0000;stroke-width:0.2" />
  </g>
  <g
     id="g909-7-3-5-9"
     transform="translate(107.53485,139.29091)">
    <rect
       y="-6.0909095"
       x="0.4651517"
       height="9.8000002"
       width="9.8000002"
       id="rect903-0-5-4-5"
       style="opacity:0.994;fill:none;stroke:#0000ff;stroke-width:0.2" />
    <circle
       r="0.94999999"
       cy="-1.1909094"
       cx="5.3651519"
       id="path905-1-4-8-3"
       style="opacity:0.994;fill:none;stroke:#ff0000;stroke-width:0.2" />
  </g>
  <g
     id="g909-7-8-9-8"
     transform="translate(187.73485,139.29091)">
    <rect
       y="-6.0909095"
       x="0.4651517"
       height="9.8000002"
       width="9.8000002"
       id="rect903-0-9-8-8"
       style="opacity:0.994;fill:none;stroke:#0000ff;stroke-width:0.2" />
    <circle
       r="0.94999999"
       cy="-1.1909094"
       cx="5.3651519"
       id="path905-1-6-4-3"
       style="opacity:0.994;fill:none;stroke:#ff0000;stroke-width:0.2" />
  </g>
  <g
     id="g909-7-38-7-7"
     transform="translate(187.73485,89.090909)">
    <rect
       y="-6.0909095"
       x="0.4651517"
       height="9.8000002"
       width="9.8000002"
       id="rect903-0-1-0-5"
       style="opacity:0.994;fill:none;stroke:#0000ff;stroke-width:0.2" />
    <circle
       r="0.94999999"
       cy="-1.1909094"
       cx="5.3651519"
       id="path905-1-7-8-6"
       style="opacity:0.994;fill:none;stroke:#ff0000;stroke-width:0.2" />
  </g>
  <g
     transform="translate(208.53485,89.090909)"
     id="g909-7-5-7-1">
    <rect
       style="opacity:0.994;fill:none;stroke:#0000ff;stroke-width:0.2"
       id="rect903-0-53-2-6"
       width="9.8000002"
       height="9.8000002"
       x="0.4651517"
       y="-6.0909095" />
    <circle
       style="opacity:0.994;fill:none;stroke:#ff0000;stroke-width:0.2"
       id="path905-1-45-7-3"
       cx="5.3651519"
       cy="-1.1909094"
       r="0.94999999" />
  </g>
  <g
     transform="translate(208.60173,139.29091)"
     id="g909-7-3-5-9-3">
    <rect
       style="opacity:0.994;fill:none;stroke:#0000ff;stroke-width:0.2"
       id="rect903-0-5-4-5-9"
       width="9.8000002"
       height="9.8000002"
       x="0.4651517"
       y="-6.0909095" />
    <circle
       style="opacity:0.994;fill:none;stroke:#ff0000;stroke-width:0.2"
       id="path905-1-4-8-3-9"
       cx="5.3651519"
       cy="-1.1909094"
       r="0.94999999" />
  </g>
  <g
     transform="translate(263.71779,139.29091)"
     id="g909-7-8-9-8-4">
    <rect
       style="opacity:0.994;fill:none;stroke:#0000ff;stroke-width:0.2"
       id="rect903-0-9-8-8-7"
       width="9.8000002"
       height="9.8000002"
       x="0.4651517"
       y="-6.0909095" />
    <circle
       style="opacity:0.994;fill:none;stroke:#ff0000;stroke-width:0.2"
       id="path905-1-6-4-3-4"
       cx="5.3651519"
       cy="-1.1909094"
       r="0.94999999" />
  </g>
  <g
     transform="translate(263.73485,89.152597)"
     id="g909-7-38-7-7-4">
    <rect
       style="opacity:0.994;fill:none;stroke:#0000ff;stroke-width:0.2"
       id="rect903-0-1-0-5-3"
       width="9.8000002"
       height="9.8000002"
       x="0.4651517"
       y="-6.0909095" />
    <circle
       style="opacity:0.994;fill:none;stroke:#ff0000;stroke-width:0.2"
       id="path905-1-7-8-6-6"
       cx="5.3651519"
       cy="-1.1909094"
       r="0.94999999" />
  </g>
  <g
     id="g909-7-5-7-1-5"
     transform="translate(208.53485,18.090909)">
    <rect
       y="-6.0909095"
       x="0.4651517"
       height="9.8000002"
       width="9.8000002"
       id="rect903-0-53-2-6-4"
       style="opacity:0.994;fill:none;stroke:#0000ff;stroke-width:0.2" />
    <circle
       r="0.94999999"
       cy="-1.1909094"
       cx="5.3651519"
       id="path905-1-45-7-3-8"
       style="opacity:0.994;fill:none;stroke:#ff0000;stroke-width:0.2" />
  </g>
  <g
     id="g909-7-3-5-9-3-6"
     transform="translate(208.60173,68.290909)">
    <rect
       y="-6.0909095"
       x="0.4651517"
       height="9.8000002"
       width="9.8000002"
       id="rect903-0-5-4-5-9-0"
       style="opacity:0.994;fill:none;stroke:#0000ff;stroke-width:0.2" />
    <circle
       r="0.94999999"
       cy="-1.1909094"
       cx="5.3651519"
       id="path905-1-4-8-3-9-8"
       style="opacity:0.994;fill:none;stroke:#ff0000;stroke-width:0.2" />
  </g>
  <g
     id="g909-7-8-9-8-4-1"
     transform="translate(263.71778,68.290909)">
    <rect
       y="-6.0909095"
       x="0.4651517"
       height="9.8000002"
       width="9.8000002"
       id="rect903-0-9-8-8-7-6"
       style="opacity:0.994;fill:none;stroke:#0000ff;stroke-width:0.2" />
    <circle
       r="0.94999999"
       cy="-1.1909094"
       cx="5.3651519"
       id="path905-1-6-4-3-4-3"
       style="opacity:0.994;fill:none;stroke:#ff0000;stroke-width:0.2" />
  </g>
  <g
     id="g909-7-38-7-7-4-8"
     transform="translate(263.73484,18.152597)">
    <rect
       y="-6.0909095"
       x="0.4651517"
       height="9.8000002"
       width="9.8000002"
       id="rect903-0-1-0-5-3-4"
       style="opacity:0.994;fill:none;stroke:#0000ff;stroke-width:0.2" />
    <circle
       r="0.94999999"
       cy="-1.1909094"
       cx="5.3651519"
       id="path905-1-7-8-6-6-3"
       style="opacity:0.994;fill:none;stroke:#ff0000;stroke-width:0.2" />
  </g>
  <rect
     ry="2.7878785"
     y="90.396011"
     x="20.85758"
     height="47.272728"
     width="5.575757"
     id="rect1060-4"
     style="opacity:0.994;fill:none;stroke:#ff0000;stroke-width:0.2" />
  <rect
     style="opacity:0.994;fill:none;stroke:#ff0000;stroke-width:0.2"
     id="rect1060-4-1"
     width="5.5757565"
     height="47.272728"
     x="35.801243"
     y="90.396011"
     ry="2.7878783" />
  <rect
     style="opacity:0.994;fill:none;stroke:#ff0000;stroke-width:0.2"
     id="rect1060-4-6"
     width="5.5757565"
     height="47.272728"
     x="53.160999"
     y="90.396011"
     ry="2.7878783" />
  <rect
     ry="2.7878783"
     y="90.396011"
     x="69.922905"
     height="47.272728"
     width="5.5757565"
     id="rect1060-4-1-7"
     style="opacity:0.994;fill:none;stroke:#ff0000;stroke-width:0.2" />
  <rect
     style="opacity:0.994;fill:none;stroke:#ff0000;stroke-width:0.2"
     id="rect1060-4-5"
     width="5.5757565"
     height="47.272728"
     x="126.8037"
     y="90.047241"
     ry="2.7878783" />
  <rect
     ry="2.7878783"
     y="90.047241"
     x="141.74738"
     height="47.272728"
     width="5.5757565"
     id="rect1060-4-1-1"
     style="opacity:0.994;fill:none;stroke:#ff0000;stroke-width:0.2" />
  <rect
     ry="2.7878783"
     y="90.047241"
     x="159.10712"
     height="47.272728"
     width="5.5757565"
     id="rect1060-4-6-9"
     style="opacity:0.994;fill:none;stroke:#ff0000;stroke-width:0.2" />
  <rect
     style="opacity:0.994;fill:none;stroke:#ff0000;stroke-width:0.2"
     id="rect1060-4-1-7-1"
     width="5.5757565"
     height="47.272728"
     x="175.86903"
     y="90.047241"
     ry="2.7878783" />
  <circle
     r="5.2999997"
     cy="30.234108"
     cx="218.61713"
     id="path869"
     style="opacity:0.994;fill:none;stroke:#ff0000;stroke-width:0.2" />
  <circle
     style="opacity:0.994;fill:none;stroke:#ff0000;stroke-width:0.2"
     id="path869-8"
     cx="264.92416"
     cy="30.723286"
     r="5.2999997" />
  <circle
     style="opacity:0.994;fill:none;stroke:#ff0000;stroke-width:0.2"
     id="path869-6"
     cx="242.22636"
     cy="23.026642"
     r="5.7000003" />
  <ellipse
     ry="2.9000001"
     rx="2.8999999"
     style="opacity:0.994;fill:none;stroke:#ff0000;stroke-width:0.2"
     id="path869-6-2-9"
     cx="268.36218"
     cy="54.535065" />
  <ellipse
     cy="55"
     cx="214.64934"
     id="path869-6-2-9-1"
     style="opacity:0.994;fill:none;stroke:#ff0000;stroke-width:0.2"
     rx="2.8999999"
     ry="2.9000001" />
  <rect
     style="opacity:0.994;fill:none;stroke:#ff0000;stroke-width:0.200001"
     id="rect1191"
     width="14.883127"
     height="10.606061"
     x="218.86688"
     y="132.39394" />
  <rect
     y="133"
     x="253.24171"
     height="10"
     width="10.941215"
     id="rect1191-8"
     style="opacity:0.994;fill:none;stroke:#ff0000;stroke-width:0.2" />
  <circle
     style="opacity:0.994;fill:none;stroke:#ff0000;stroke-width:0.2"
     id="path869-2"
     cx="124.62837"
     cy="39.802422"
     r="3.3" />
  <rect
     style="opacity:0.994;fill:none;stroke:#0000ff;stroke-width:0.2"
     id="rect920"
     width="27.370001"
     height="27.899996"
     x="140.536"
     y="26.450001" />
  <path
     transform="matrix(0.26458333,0,0,0.26458333,-2,-2)"
     d="M 570.03125 107.52734 L 570.03125 124.91406 L 538.71875 124.91406 L 538.71875 195.58984 L 558.65625 195.58984 L 558.65625 212.97656 L 623.71094 212.97656 L 623.71094 195.58984 L 642.16406 195.58984 L 642.16406 124.91406 L 610.85156 124.91406 L 610.85156 107.52734 L 570.03125 107.52734 z "
     style="opacity:0.994;fill:none;stroke:#ff0000;stroke-width:0.755906"
     id="rect920-8" />
  <ellipse
     ry="0.81230479"
     rx="0.81254876"
     cy="28.262306"
     cx="142.34854"
     id="path869-2-7"
     style="opacity:0.994;fill:none;stroke:#ff0000;stroke-width:0.2" />
  <ellipse
     ry="0.81230479"
     rx="0.81254876"
     style="opacity:0.994;fill:none;stroke:#ff0000;stroke-width:0.2"
     id="path869-2-7-9"
     cx="166.09344"
     cy="28.262306" />
  <ellipse
     ry="0.81230479"
     rx="0.81254876"
     style="opacity:0.994;fill:none;stroke:#ff0000;stroke-width:0.2"
     id="path869-2-7-3"
     cx="142.34854"
     cy="52.537693" />
  <ellipse
     ry="0.81230479"
     rx="0.81254876"
     cy="52.537693"
     cx="166.09344"
     id="path869-2-7-9-5"
     style="opacity:0.994;fill:none;stroke:#ff0000;stroke-width:0.2" />
  <rect
     ry="3.5712545"
     transform="rotate(-90)"
     y="121.97147"
     x="-65.092278"
     height="15.113045"
     width="6.7971234"
     id="rect1060-0-9-9-4-1"
     style="opacity:0.994;fill:none;stroke:#ff0000;stroke-width:0.2" />
  <circle
     cy="44.702423"
     cx="133.52835"
     id="path869-2-9"
     style="opacity:0.994;fill:none;stroke:#ff0000;stroke-width:0.2"
     r="1.3" />
  <circle
     r="3.3"
     cy="40.519184"
     cx="177.92941"
     id="path869-2-0"
     style="opacity:0.994;fill:none;stroke:#ff0000;stroke-width:0.2" />
  <circle
     r="1.3"
     style="opacity:0.994;fill:none;stroke:#ff0000;stroke-width:0.2"
     id="path869-2-9-6"
     cx="186.82941"
     cy="45.419186" />
  <rect
     style="opacity:0.994;fill:none;stroke:#ff0000;stroke-width:0.2"
     id="rect1060-0-9-9-4-1-7"
     width="6.797123"
     height="15.113045"
     x="-65.433044"
     y="168.06503"
     transform="rotate(-90)"
     ry="3.5712545" />
  <rect
     style="opacity:0.994;fill:none;stroke:#ff0000;stroke-width:0.2"
     id="rect1060-0-9-9-4-1-5"
     width="6.797123"
     height="15.113045"
     x="-21.119001"
     y="122.33572"
     transform="rotate(-90)"
     ry="3.5712545" />
  <rect
     ry="3.5712545"
     transform="rotate(-90)"
     y="168.42929"
     x="-21.459764"
     height="15.113045"
     width="6.797123"
     id="rect1060-0-9-9-4-1-7-8"
     style="opacity:0.994;fill:none;stroke:#ff0000;stroke-width:0.2" />
  <circle
     style="opacity:0.994;fill:none;stroke:#ff0000;stroke-width:0.2"
     id="path869-82"
     cx="218.85129"
     cy="102.63502"
     r="5.2999997" />
  <circle
     r="5.2999997"
     cy="103.12418"
     cx="265.15836"
     id="path869-8-6"
     style="opacity:0.994;fill:none;stroke:#ff0000;stroke-width:0.2" />
  <ellipse
     cy="126.93594"
     cx="268.59637"
     id="path869-6-2-9-6"
     style="opacity:0.994;fill:none;stroke:#ff0000;stroke-width:0.2"
     rx="2.8999999"
     ry="2.9000001" />
  <ellipse
     ry="2.9000001"
     rx="2.8999999"
     style="opacity:0.994;fill:none;stroke:#ff0000;stroke-width:0.2"
     id="path869-6-2-9-1-4"
     cx="214.8835"
     cy="127.40089" />
  <circle
     r="5.7000003"
     cy="96.407219"
     cx="242.97118"
     id="path869-6-1"
     style="opacity:0.994;fill:none;stroke:#ff0000;stroke-width:0.2" />
  <rect
     style="fill:none;stroke:#ff0000;stroke-width:0.2"
     id="rect760"
     width="285"
     height="154"
     x="-2"
     y="-2" />
</svg>
